<svg width="224" height="245" viewBox="0 0 224 245" fill="none" xmlns="http://www.w3.org/2000/svg">
<path d="M22.0276 62.4169L7.68337 41.3125L8.67583 16.0194L22.0276 11.0124L33.3767 11.0124L62.0829 30.0388L39.8802 46.5806L22.0276 62.4169Z" stroke="white" stroke-width="3"/>
<path d="M19.805 4.7071L8.66195 16.297L21.8918 11.1357L33.2583 10.9122L62.8928 30.4443L35.8932 3.33216L19.805 4.7071Z" stroke="white" stroke-width="3"/>
<path d="M62.0831 30.0388L110.817 18.6898M62.0831 30.0388L58.0776 76.4363M62.0831 30.0388L39.7188 46.7285L22.0277 62.4169L10.4939 105.476M2 137.187L24.6981 193.932M2 137.187L10.4939 105.476M2 137.187H29.705M24.6981 193.932L48.3975 191.929M24.6981 193.932L58.0776 221.947M62.0831 225.309L110.817 243L161.22 225.309M62.0831 225.309L58.0776 221.947M62.0831 225.309H88.7867M161.22 225.309L197.938 193.932M161.22 225.309L173.571 191.929M161.22 225.309H135.518M197.938 193.932L221.637 137.187L221.119 135.184M197.938 193.932L173.571 191.929M110.817 18.6898L110.209 21.0263L95.7964 76.4363M110.817 18.6898L127.173 78.7729M110.817 18.6898L161.22 29.6051M58.0776 76.4363L48.3975 105.476M58.0776 76.4363H95.7964M48.3975 105.476H10.4939M48.3975 105.476L60.7479 94.795M48.3975 105.476L61.5824 106.812M29.705 137.187L62.0831 116.492M29.705 137.187L70.0942 179.913M29.705 137.187L48.3975 191.929M62.0831 116.492L61.5824 106.812M62.0831 116.492L64.7481 119.496M80.4418 137.187L70.0942 179.913M80.4418 137.187L100.47 116.492V112.319M80.4418 137.187L64.7481 119.496M70.0942 179.913L48.3975 191.929M70.0942 179.913L70.7618 215.295H83.446L88.7867 225.309M95.7964 76.4363L100.47 99.8019V108.147M127.173 78.7729H163.223M127.173 78.7729L120.497 112.82M163.223 78.7729L161.22 29.6051M163.223 78.7729L164.044 80.4418L173.571 99.8019V105.476M161.22 29.6051L163.223 30.0388L202.277 62.4169L213.426 105.476M173.571 105.476H213.426M173.571 105.476L161.22 94.795M173.571 105.476L157.882 107.045M213.426 105.476L221.119 135.184M48.3975 191.929L58.0776 221.947M173.571 191.929L193.932 135.184M173.571 191.929L152.208 180.247M193.932 135.184H221.119M193.932 135.184L161.22 116.492M193.932 135.184L152.208 180.247M161.22 116.492L142.528 137.187M161.22 116.492L157.882 107.045M161.22 116.492L157.882 119.496H145.198L137.187 112.82M142.528 137.187L152.208 180.247M142.528 137.187L120.497 112.82M152.208 180.247V215.295H140.859L135.518 225.309M135.518 225.309H88.7867M120.497 112.82L132.18 94.795M120.497 112.82H137.187M120.497 112.82L100.47 112.319M60.7479 94.795H90.4557M60.7479 94.795L74.7673 108.147M90.4557 94.795L100.47 108.147M90.4557 94.795L86.7839 112.82M100.47 108.147V112.319M100.47 112.319L86.7839 112.82M86.7839 112.82L74.7673 108.147M86.7839 112.82L74.7673 119.496H64.7481M74.7673 108.147L61.5824 106.812M132.18 94.795H161.22M132.18 94.795L137.187 112.82M161.22 94.795L146.867 108.147M146.867 108.147L137.187 112.82M146.867 108.147L157.882 107.045" stroke="white" stroke-width="3"/>
<path d="M100.47 116.492L80.4419 137.187L70.0942 180.914M100.47 116.492L70.0942 180.914M100.47 116.492L111.652 113.821M70.0942 180.914L70.7618 215.295H76.937H83.1122M123.168 115.824L152.208 179.913M123.168 115.824L142.528 137.187L152.208 179.913M123.168 115.824L111.652 113.821M152.208 179.913V215.295H140.859M111.652 113.821V165.56M111.652 222.972H90.7895L83.1122 215.295M111.652 222.972H134.517L140.859 215.295M111.652 222.972V206.616M83.1122 215.295H92.4585M140.859 215.295H130.845M130.845 215.295L111.652 206.616M130.845 215.295H92.4585M111.652 206.616L92.4585 215.295M111.652 206.616V194.6M111.652 165.56L86.784 170.233V191.262M111.652 165.56V194.6M111.652 165.56L136.519 170.233V191.262M111.652 165.56L136.519 191.262M111.652 165.56L86.784 191.262M86.784 191.262L94.7951 194.6H111.652M111.652 194.6H129.51L136.519 191.262" stroke="white" stroke-width="3"/>
<path d="M62.0831 116.158L61.4155 106.812L76.7701 108.814L86.4502 112.82L74.7673 119.496H64.7535L62.0831 116.158Z" stroke="white" stroke-width="3"/>
<path d="M61.0817 94.4612L48.3975 105.476L58.0775 76.7701M61.0817 94.4612L90.4556 95.1288M61.0817 94.4612L58.0775 76.7701M90.4556 95.1288L100.469 108.147V98.4668L95.4626 76.7701M90.4556 95.1288L95.4626 76.7701M95.4626 76.7701H58.0775" stroke="white" stroke-width="3"/>
<path d="M146.867 108.147L137.187 112.82L145.198 119.496H158.55L161.22 116.492L157.882 107.145L146.867 108.147Z" stroke="white" stroke-width="3"/>
<path d="M127.173 78.4391L120.497 112.486L132.18 94.795M127.173 78.4391L163.223 78.7729M127.173 78.4391L132.18 94.795M132.18 94.795H161.22M161.22 94.795L173.571 105.143V99.8019L163.223 78.7729M161.22 94.795L163.223 78.7729" stroke="white" stroke-width="3"/>
<path d="M171.902 19.6911L161.554 29.705L163.223 30.0388L202.277 62.0831L215.963 44.0582V15.3518L200.942 9.34348L189.593 11.0125L171.902 19.6911Z" stroke="white" stroke-width="3"/>
<path d="M161.888 29.3712L171.902 19.6911M171.902 19.6911L188.258 3.00139L201.609 2L215.962 15.3518L201.609 9.34349L189.593 11.0125L171.902 19.6911Z" stroke="white" stroke-width="3"/>
</svg>
