<svg width="76" height="76" viewBox="0 0 76 76" fill="none" xmlns="http://www.w3.org/2000/svg">
<rect width="75.0879" height="75.0879" rx="15" fill="white"/>
<path d="M44.0853 28.9151C50.5035 35.3399 50.4154 45.6405 44.124 51.9668C44.1122 51.9797 44.0982 51.9936 44.0853 52.0065L36.8666 59.2253C30.4997 65.5922 20.1411 65.5913 13.7752 59.2253C7.40828 52.8594 7.40828 42.4997 13.7752 36.1339L17.7612 32.1479C18.8182 31.0908 20.6386 31.7934 20.6931 33.2872C20.7628 35.1909 21.1041 37.1036 21.7341 38.9506C21.9474 39.576 21.795 40.2678 21.3277 40.7351L19.9219 42.1409C16.9112 45.1515 16.8168 50.0536 19.7978 53.0936C22.8082 56.1636 27.7562 56.1819 30.7897 53.1484L38.0085 45.9307C41.0368 42.9024 41.0241 38.0076 38.0085 34.992C37.6109 34.5951 37.2104 34.2868 36.8976 34.0715C36.6763 33.9195 36.4936 33.7179 36.364 33.4828C36.2345 33.2477 36.1616 32.9856 36.1514 32.7173C36.1088 31.5822 36.511 30.4125 37.408 29.5155L39.6696 27.2537C40.2627 26.6606 41.1931 26.5878 41.8808 27.0678C42.6684 27.6177 43.4061 28.2359 44.0853 28.9151V28.9151ZM59.2248 13.7748C52.8589 7.40881 42.5003 7.40795 36.1334 13.7748L28.9147 20.9936C28.9018 21.0065 28.8878 21.0205 28.876 21.0333C22.5847 27.3596 22.4965 37.6602 28.9147 44.085C29.5939 44.7642 30.3315 45.3823 31.1191 45.9322C31.8068 46.4122 32.7373 46.3393 33.3303 45.7463L35.5919 43.4845C36.4889 42.5875 36.8911 41.4178 36.8485 40.2827C36.8383 40.0145 36.7654 39.7523 36.6359 39.5172C36.5063 39.2821 36.3236 39.0805 36.1023 38.9285C35.7895 38.7132 35.389 38.4049 34.9914 38.008C31.9758 34.9924 31.9631 30.0976 34.9914 27.0693L42.2102 19.8516C45.2437 16.8181 50.1916 16.8364 53.2021 19.9064C56.1831 22.9464 56.0888 27.8485 53.078 30.8591L51.6722 32.2649C51.2049 32.7322 51.0525 33.424 51.2658 34.0494C51.8958 35.8965 52.2372 37.8091 52.3068 39.7128C52.3614 41.2066 54.1817 41.9092 55.2387 40.8521L59.2247 36.8661C65.5917 30.5004 65.5917 20.1407 59.2248 13.7748V13.7748Z" fill="#201C5F"/>
</svg>
