<svg width="331" height="363" viewBox="0 0 331 363" fill="none" xmlns="http://www.w3.org/2000/svg">
<path d="M30.9999 91.5L9.51333 59.8872L11 22L31 14.5L48 14.5L90.9998 43L57.7417 67.7785L30.9999 91.5Z" fill="#BD9838" stroke="black"/>
<path d="M27.6706 5.05505L10.9792 22.4159L30.7965 14.6846L47.8226 14.3499L92.2129 43.6074L51.7695 2.99549L27.6706 5.05505Z" fill="#723D18" stroke="black"/>
<path d="M35 288.5L1 203.5L13.7232 156L31 91.5L57.5 68L91 43L164 26L239.5 42.3503L242.5 43L301 91.5L317.701 156L329.223 200.5L330 203.5L294.5 288.5L239.5 335.5L164 362L91 335.5L85 330.464L35 288.5Z" fill="#723D18"/>
<path d="M91 43L164 26M91 43L85 112.5M91 43L57.5 68L31 91.5L13.7232 156M1 203.5L35 288.5M1 203.5L13.7232 156M1 203.5H42.5M35 288.5L70.5 285.5M35 288.5L85 330.464M91 335.5L164 362L239.5 335.5M91 335.5L85 330.464M91 335.5H131M239.5 335.5L294.5 288.5M239.5 335.5L258 285.5M239.5 335.5H201M294.5 288.5L330 203.5L329.223 200.5M294.5 288.5L258 285.5M164 26L163.09 29.5L141.5 112.5M164 26L188.5 116M164 26L239.5 42.3503M85 112.5L70.5 156M85 112.5H141.5M70.5 156H13.7232M70.5 156L89 140M70.5 156L90.25 158M42.5 203.5L91 172.5M42.5 203.5L103 267.5M42.5 203.5L70.5 285.5M91 172.5L90.25 158M91 172.5L94.9919 177M118.5 203.5L103 267.5M118.5 203.5L148.5 172.5V166.25M118.5 203.5L94.9919 177M103 267.5L70.5 285.5M103 267.5L104 320.5H123L131 335.5M141.5 112.5L148.5 147.5V160M188.5 116H242.5M188.5 116L178.5 167M242.5 116L239.5 42.3503M242.5 116L243.73 118.5L258 147.5V156M239.5 42.3503L242.5 43L301 91.5L317.701 156M258 156H317.701M258 156L239.5 140M258 156L234.5 158.35M317.701 156L329.223 200.5M70.5 285.5L85 330.464M258 285.5L288.5 200.5M258 285.5L226 268M288.5 200.5H329.223M288.5 200.5L239.5 172.5M288.5 200.5L226 268M239.5 172.5L211.5 203.5M239.5 172.5L234.5 158.35M239.5 172.5L234.5 177H215.5L203.5 167M211.5 203.5L226 268M211.5 203.5L178.5 167M226 268V320.5H209L201 335.5M201 335.5H131M178.5 167L196 140M178.5 167H203.5M178.5 167L148.5 166.25M89 140H133.5M89 140L110 160M133.5 140L148.5 160M133.5 140L128 167M148.5 160V166.25M148.5 166.25L128 167M128 167L110 160M128 167L110 177H94.9919M110 160L90.25 158M196 140H239.5M196 140L203.5 167M239.5 140L218 160M218 160L203.5 167M218 160L234.5 158.35" stroke="black"/>
<path d="M148.5 172.5L118.5 203.5L103 269M148.5 172.5L103 269M148.5 172.5L165.25 168.5M103 269L104 320.5H113.25H122.5M182.5 171.5L226 267.5M182.5 171.5L211.5 203.5L226 267.5M182.5 171.5L165.25 168.5M226 267.5V320.5H209M165.25 168.5V246M165.25 332H134L122.5 320.5M165.25 332H199.5L209 320.5M165.25 332V307.5M122.5 320.5H136.5M209 320.5H194M194 320.5L165.25 307.5M194 320.5H136.5M165.25 307.5L136.5 320.5M165.25 307.5V289.5M165.25 246L128 253V284.5M165.25 246V289.5M165.25 246L202.5 253V284.5M165.25 246L202.5 284.5M165.25 246L128 284.5M128 284.5L140 289.5H165.25M165.25 289.5H192L202.5 284.5" stroke="black"/>
<path d="M91 172L90 158L113 161L127.5 167L110 177H95L91 172Z" fill="white" stroke="black"/>
<path d="M89.5 139.5L70.5 156L85 113H141L148.5 145.5V160L133.5 140.5L89.5 139.5Z" fill="black"/>
<path d="M89.5 139.5L70.5 156L85 113M89.5 139.5L133.5 140.5M89.5 139.5L85 113M133.5 140.5L148.5 160V145.5L141 113M133.5 140.5L141 113M141 113H85" stroke="black"/>
<path d="M218 160L203.5 167L215.5 177H235.5L239.5 172.5L234.5 158.5L218 160Z" fill="white" stroke="black"/>
<path d="M178.5 166.5L188.5 115.5L242.5 116L258 147.5V155.5L239.5 140H196L178.5 166.5Z" fill="black"/>
<path d="M188.5 115.5L178.5 166.5L196 140M188.5 115.5L242.5 116M188.5 115.5L196 140M196 140H239.5M239.5 140L258 155.5V147.5L242.5 116M239.5 140L242.5 116" stroke="#0F0D0D"/>
<path d="M255.5 27.5L240 42.5L242.5 43L301 91L321.5 64V21L299 12L282 14.5L255.5 27.5Z" fill="#BD9838" stroke="black"/>
<path d="M280 2.5L255.5 27.5L282 14.5L300 12L321.5 21L300 1L280 2.5Z" fill="#723D18"/>
<path d="M240.5 42L255.5 27.5M255.5 27.5L280 2.5L300 1L321.5 21L300 12L282 14.5L255.5 27.5Z" stroke="black"/>
</svg>
