<svg width="76" height="76" viewBox="0 0 76 76" fill="none" xmlns="http://www.w3.org/2000/svg">
<rect width="75.0879" height="75.0879" rx="15" fill="white"/>
<g clip-path="url(#clip0)">
<path d="M56.1875 17.75H51.125V12.2656C51.125 11.5667 50.5583 11 49.8594 11H45.6406C44.9417 11 44.375 11.5667 44.375 12.2656V17.75H30.875V12.2656C30.875 11.5667 30.3083 11 29.6094 11H25.3906C24.6917 11 24.125 11.5667 24.125 12.2656V17.75H19.0625C16.2665 17.75 14 20.0165 14 22.8125V59.9375C14 62.7335 16.2665 65 19.0625 65H56.1875C58.9835 65 61.25 62.7335 61.25 59.9375V22.8125C61.25 20.0165 58.9835 17.75 56.1875 17.75ZM55.5547 59.9375H19.6953C19.5275 59.9375 19.3665 59.8708 19.2478 59.7522C19.1292 59.6335 19.0625 59.4725 19.0625 59.3047V27.875H56.1875V59.3047C56.1875 59.4725 56.1208 59.6335 56.0022 59.7522C55.8835 59.8708 55.7225 59.9375 55.5547 59.9375V59.9375ZM49.9808 38.7752L34.9716 53.6641C34.4754 54.1563 33.674 54.1532 33.1817 53.6569L25.262 45.6731C24.7697 45.1768 24.7729 44.3755 25.2691 43.8832L27.6653 41.5063C28.1615 41.0141 28.9629 41.0172 29.4551 41.5136L34.1067 46.2028L45.8213 34.5822C46.3175 34.09 47.1189 34.0931 47.6112 34.5894L49.988 36.9854C50.4803 37.4816 50.477 38.283 49.9808 38.7752Z" fill="#201C5F"/>
</g>
<defs>
<clipPath id="clip0">
<rect width="47.25" height="54" fill="white" transform="translate(14 11)"/>
</clipPath>
</defs>
</svg>
